<svg width="319" height="79" viewBox="0 0 319 79" fill="none" xmlns="http://www.w3.org/2000/svg">
<path fill-rule="evenodd" clip-rule="evenodd" d="M32.3953 9.90804L38.7678 3.53553L35.2322 0L27.3033 7.92893C26.6547 8.57754 26.0923 9.2797 25.616 10.0212C11.1592 11.9225 0 24.292 0 39.2678C0 54.5833 11.6712 67.1728 26.6047 68.6275L20.2322 75L23.7678 78.5355L31.6967 70.6066C32.3453 69.958 32.9077 69.2558 33.384 68.5144C47.8408 66.613 59 54.2436 59 39.2678C59 23.9523 47.3288 11.3627 32.3953 9.90804ZM23.8688 14.3916C12.495 16.9553 4 27.1195 4 39.2678C4 53.351 15.4167 64.7678 29.5 64.7678C29.5782 64.7678 29.6563 64.7674 29.7344 64.7667C30.9302 62.0226 30.4058 58.7091 28.1612 56.4645L27.3033 55.6066C22.4217 50.725 22.4218 42.8105 27.3033 37.9289L28.1612 37.0711C31.0901 34.1421 31.0901 29.3934 28.1612 26.4645L27.3033 25.6066C24.2552 22.5585 23.1104 18.328 23.8688 14.3916ZM35.1312 64.1439C35.8896 60.2076 34.7448 55.977 31.6967 52.9289L30.8388 52.0711C27.9099 49.1421 27.9099 44.3934 30.8388 41.4645L31.6967 40.6066C36.5783 35.725 36.5783 27.8105 31.6967 22.9289L30.8388 22.0711C28.5942 19.8264 28.0698 16.5129 29.2656 13.7688C29.3437 13.7681 29.4218 13.7678 29.5 13.7678C43.5833 13.7678 55 25.1845 55 39.2678C55 51.4161 46.505 61.5802 35.1312 64.1439ZM179.607 11.7678H173.078V53.2556H179.607V11.7678ZM95.7576 32.8958C96.5919 33.3714 97.3898 34.0117 98.1515 34.8165L102.667 30.2617C101.398 28.8714 99.9107 27.8653 98.206 27.2434C96.5374 26.5848 94.8689 26.2556 93.2004 26.2556C91.2418 26.2556 89.3919 26.5848 87.6508 27.2434C85.9098 27.9019 84.4045 28.8348 83.135 30.0422C81.8655 31.2495 80.8499 32.7129 80.0882 34.4324C79.3627 36.1153 79 37.9995 79 40.0848C79 42.1702 79.3627 44.0726 80.0882 45.7922C80.8499 47.4751 81.8655 48.9202 83.135 50.1275C84.4045 51.3348 85.9098 52.2678 87.6508 52.9263C89.3919 53.5848 91.2418 53.9141 93.2004 53.9141C93.7808 53.9141 94.4699 53.8409 95.2679 53.6946C96.0659 53.5848 96.9002 53.3836 97.7707 53.0909C98.6412 52.7983 99.4936 52.4141 100.328 51.9385C101.198 51.4629 101.96 50.8958 102.613 50.2373L98.2604 45.5178C97.6437 46.3226 96.9002 46.9446 96.0296 47.3836C95.1591 47.7861 94.216 47.9873 93.2004 47.9873C92.0035 47.9873 90.9334 47.7678 89.9904 47.3287C89.0473 46.8897 88.2312 46.3043 87.542 45.5726C86.8891 44.8409 86.3813 43.9995 86.0186 43.0483C85.6922 42.097 85.5289 41.1092 85.5289 40.0848C85.5289 39.0604 85.6922 38.0726 86.0186 37.1214C86.3813 36.1702 86.8891 35.3287 87.542 34.597C88.2312 33.8653 89.0473 33.28 89.9904 32.8409C90.9334 32.4019 92.0035 32.1824 93.2004 32.1824C94.071 32.1824 94.9233 32.4202 95.7576 32.8958ZM106.336 34.4324C105.61 36.1153 105.248 37.9995 105.248 40.0848C105.248 42.1702 105.61 44.0726 106.336 45.7922C107.097 47.4751 108.113 48.9202 109.382 50.1275C110.652 51.3348 112.157 52.2678 113.898 52.9263C115.639 53.5848 117.489 53.9141 119.448 53.9141C121.407 53.9141 123.256 53.5848 124.998 52.9263C126.739 52.2678 128.244 51.3348 129.513 50.1275C130.783 48.9202 131.78 47.4751 132.506 45.7922C133.268 44.0726 133.648 42.1702 133.648 40.0848C133.648 37.9995 133.268 36.1153 132.506 34.4324C131.78 32.7129 130.783 31.2495 129.513 30.0422C128.244 28.8348 126.739 27.9019 124.998 27.2434C123.256 26.5848 121.407 26.2556 119.448 26.2556C117.489 26.2556 115.639 26.5848 113.898 27.2434C112.157 27.9019 110.652 28.8348 109.382 30.0422C108.113 31.2495 107.097 32.7129 106.336 34.4324ZM112.266 43.0483C111.94 42.097 111.776 41.1092 111.776 40.0848C111.776 39.0604 111.94 38.0726 112.266 37.1214C112.629 36.1702 113.137 35.3287 113.79 34.597C114.479 33.8653 115.295 33.28 116.238 32.8409C117.181 32.4019 118.251 32.1824 119.448 32.1824C120.645 32.1824 121.715 32.4019 122.658 32.8409C123.601 33.28 124.399 33.8653 125.052 34.597C125.741 35.3287 126.249 36.1702 126.575 37.1214C126.938 38.0726 127.119 39.0604 127.119 40.0848C127.119 41.1092 126.938 42.097 126.575 43.0483C126.249 43.9995 125.741 44.8409 125.052 45.5726C124.399 46.3043 123.601 46.8897 122.658 47.3287C121.715 47.7678 120.645 47.9873 119.448 47.9873C118.251 47.9873 117.181 47.7678 116.238 47.3287C115.295 46.8897 114.479 46.3043 113.79 45.5726C113.137 44.8409 112.629 43.9995 112.266 43.0483ZM138.455 40.0848C138.455 37.9995 138.818 36.1153 139.544 34.4324C140.305 32.7129 141.321 31.2495 142.59 30.0422C143.86 28.8348 145.365 27.9019 147.106 27.2434C148.847 26.5848 150.697 26.2556 152.656 26.2556C154.615 26.2556 156.464 26.5848 158.205 27.2434C159.946 27.9019 161.452 28.8348 162.721 30.0422C163.991 31.2495 164.988 32.7129 165.714 34.4324C166.475 36.1153 166.856 37.9995 166.856 40.0848C166.856 42.1702 166.475 44.0726 165.714 45.7922C164.988 47.4751 163.991 48.9202 162.721 50.1275C161.452 51.3348 159.946 52.2678 158.205 52.9263C156.464 53.5848 154.615 53.9141 152.656 53.9141C150.697 53.9141 148.847 53.5848 147.106 52.9263C145.365 52.2678 143.86 51.3348 142.59 50.1275C141.321 48.9202 140.305 47.4751 139.544 45.7922C138.818 44.0726 138.455 42.1702 138.455 40.0848ZM144.984 40.0848C144.984 41.1092 145.148 42.097 145.474 43.0483C145.837 43.9995 146.345 44.8409 146.997 45.5726C147.687 46.3043 148.503 46.8897 149.446 47.3287C150.389 47.7678 151.459 47.9873 152.656 47.9873C153.853 47.9873 154.923 47.7678 155.866 47.3287C156.809 46.8897 157.607 46.3043 158.26 45.5726C158.949 44.8409 159.457 43.9995 159.783 43.0483C160.146 42.097 160.327 41.1092 160.327 40.0848C160.327 39.0604 160.146 38.0726 159.783 37.1214C159.457 36.1702 158.949 35.3287 158.26 34.597C157.607 33.8653 156.809 33.28 155.866 32.8409C154.923 32.4019 153.853 32.1824 152.656 32.1824C151.459 32.1824 150.389 32.4019 149.446 32.8409C148.503 33.28 147.687 33.8653 146.997 34.597C146.345 35.3287 145.837 36.1702 145.474 37.1214C145.148 38.0726 144.984 39.0604 144.984 40.0848ZM201.031 34.2129C199.761 32.4202 198.056 31.5239 195.916 31.5239C195.046 31.5239 194.193 31.7434 193.359 32.1824C192.525 32.6214 192.108 33.3348 192.108 34.3226C192.108 35.1275 192.452 35.7129 193.142 36.0787C193.831 36.4446 194.701 36.7556 195.753 37.0117C196.805 37.2678 197.929 37.5422 199.126 37.8348C200.36 38.0909 201.502 38.5117 202.554 39.097C203.606 39.6458 204.477 40.4141 205.166 41.4019C205.855 42.3897 206.199 43.7434 206.199 45.4629C206.199 47.0361 205.855 48.3714 205.166 49.469C204.513 50.53 203.642 51.3897 202.554 52.0483C201.502 52.7068 200.305 53.1824 198.963 53.4751C197.621 53.7678 196.279 53.9141 194.937 53.9141C192.906 53.9141 191.038 53.6214 189.333 53.0361C187.628 52.4507 186.105 51.3897 184.763 49.8531L189.115 45.7373C189.95 46.6885 190.838 47.4751 191.781 48.097C192.761 48.6824 193.94 48.9751 195.318 48.9751C195.789 48.9751 196.279 48.9202 196.787 48.8104C197.295 48.7007 197.766 48.5178 198.202 48.2617C198.637 48.0056 198.981 47.6946 199.235 47.3287C199.525 46.9263 199.671 46.469 199.671 45.9568C199.671 45.0422 199.326 44.3653 198.637 43.9263C197.948 43.4873 197.077 43.1397 196.025 42.8836C194.973 42.5909 193.831 42.3348 192.598 42.1153C191.401 41.8592 190.276 41.4751 189.224 40.9629C188.172 40.4141 187.302 39.6641 186.613 38.7129C185.924 37.7617 185.579 36.4446 185.579 34.7617C185.579 33.2983 185.869 32.0361 186.449 30.9751C187.066 29.8775 187.864 28.9812 188.843 28.2861C189.823 27.5909 190.947 27.0787 192.217 26.7495C193.486 26.4202 194.774 26.2556 196.08 26.2556C197.821 26.2556 199.544 26.5665 201.248 27.1885C202.953 27.7739 204.331 28.7983 205.383 30.2617L201.031 34.2129ZM217.48 26.9141H211.278V65.7678H217.807V49.908H217.97C218.296 50.347 218.713 50.8043 219.221 51.28C219.729 51.719 220.346 52.1397 221.071 52.5422C221.797 52.9446 222.631 53.2739 223.574 53.53C224.517 53.7861 225.605 53.9141 226.838 53.9141C228.688 53.9141 230.393 53.5665 231.953 52.8714C233.512 52.1397 234.836 51.1519 235.924 49.908C237.049 48.6641 237.919 47.2007 238.536 45.5178C239.153 43.8348 239.461 42.0239 239.461 40.0848C239.461 38.1458 239.171 36.3348 238.59 34.6519C238.01 32.969 237.158 31.5056 236.033 30.2617C234.909 29.0178 233.549 28.0483 231.953 27.3531C230.357 26.6214 228.561 26.2556 226.566 26.2556C224.716 26.2556 222.993 26.6214 221.398 27.3531C219.802 28.0848 218.532 29.2556 217.589 30.8653H217.48V26.9141ZM232.388 37.1214C232.751 38.0726 232.932 39.0604 232.932 40.0848C232.932 41.1092 232.751 42.097 232.388 43.0483C232.061 43.9995 231.554 44.8409 230.864 45.5726C230.212 46.3043 229.414 46.8897 228.471 47.3287C227.527 47.7678 226.457 47.9873 225.26 47.9873C224.064 47.9873 222.993 47.7678 222.05 47.3287C221.107 46.8897 220.291 46.3043 219.602 45.5726C218.949 44.8409 218.441 43.9995 218.079 43.0483C217.752 42.097 217.589 41.1092 217.589 40.0848C217.589 39.0604 217.752 38.0726 218.079 37.1214C218.441 36.1702 218.949 35.3287 219.602 34.597C220.291 33.8653 221.107 33.28 222.05 32.8409C222.993 32.4019 224.064 32.1824 225.26 32.1824C226.457 32.1824 227.527 32.4019 228.471 32.8409C229.414 33.28 230.212 33.8653 230.864 34.597C231.554 35.3287 232.061 36.1702 232.388 37.1214ZM244.242 40.0848C244.242 37.9995 244.605 36.1153 245.331 34.4324C246.092 32.7129 247.108 31.2495 248.377 30.0422C249.647 28.8348 251.152 27.9019 252.893 27.2434C254.634 26.5848 256.484 26.2556 258.443 26.2556C260.402 26.2556 262.251 26.5848 263.992 27.2434C265.733 27.9019 267.239 28.8348 268.508 30.0422C269.778 31.2495 270.775 32.7129 271.501 34.4324C272.262 36.1153 272.643 37.9995 272.643 40.0848C272.643 42.1702 272.262 44.0726 271.501 45.7922C270.775 47.4751 269.778 48.9202 268.508 50.1275C267.239 51.3348 265.733 52.2678 263.992 52.9263C262.251 53.5848 260.402 53.9141 258.443 53.9141C256.484 53.9141 254.634 53.5848 252.893 52.9263C251.152 52.2678 249.647 51.3348 248.377 50.1275C247.108 48.9202 246.092 47.4751 245.331 45.7922C244.605 44.0726 244.242 42.1702 244.242 40.0848ZM250.771 40.0848C250.771 41.1092 250.935 42.097 251.261 43.0483C251.624 43.9995 252.132 44.8409 252.784 45.5726C253.474 46.3043 254.29 46.8897 255.233 47.3287C256.176 47.7678 257.246 47.9873 258.443 47.9873C259.64 47.9873 260.71 47.7678 261.653 47.3287C262.596 46.8897 263.394 46.3043 264.047 45.5726C264.736 44.8409 265.244 43.9995 265.57 43.0483C265.933 42.097 266.114 41.1092 266.114 40.0848C266.114 39.0604 265.933 38.0726 265.57 37.1214C265.244 36.1702 264.736 35.3287 264.047 34.597C263.394 33.8653 262.596 33.28 261.653 32.8409C260.71 32.4019 259.64 32.1824 258.443 32.1824C257.246 32.1824 256.176 32.4019 255.233 32.8409C254.29 33.28 253.474 33.8653 252.784 34.597C252.132 35.3287 251.624 36.1702 251.261 37.1214C250.935 38.0726 250.771 39.0604 250.771 40.0848ZM275.709 26.9141V32.5117H281.096V44.5848C281.096 46.1214 281.204 47.4751 281.422 48.6458C281.676 49.8165 282.111 50.8043 282.728 51.6092C283.381 52.3775 284.251 52.9446 285.339 53.3104C286.464 53.7129 287.897 53.9141 289.638 53.9141C290.399 53.9141 291.27 53.8409 292.249 53.6946C293.265 53.5848 294.117 53.3653 294.806 53.0361V47.4934C294.407 47.7861 293.863 48.0056 293.174 48.1519C292.485 48.2617 291.85 48.3165 291.27 48.3165C289.819 48.3165 288.84 47.9324 288.332 47.1641C287.86 46.3958 287.625 45.3531 287.625 44.0361V32.5117H294.806V26.9141H287.625V19.2861H281.096V26.9141H275.709ZM313.831 34.2129C312.562 32.4202 310.857 31.5239 308.717 31.5239C307.846 31.5239 306.994 31.7434 306.16 32.1824C305.326 32.6214 304.908 33.3348 304.908 34.3226C304.908 35.1275 305.253 35.7129 305.942 36.0787C306.631 36.4446 307.502 36.7556 308.554 37.0117C309.606 37.2678 310.73 37.5422 311.927 37.8348C313.16 38.0909 314.303 38.5117 315.355 39.097C316.407 39.6458 317.277 40.4141 317.966 41.4019C318.655 42.3897 319 43.7434 319 45.4629C319 47.0361 318.655 48.3714 317.966 49.469C317.313 50.53 316.443 51.3897 315.355 52.0483C314.303 52.7068 313.106 53.1824 311.764 53.4751C310.422 53.7678 309.08 53.9141 307.738 53.9141C305.706 53.9141 303.838 53.6214 302.134 53.0361C300.429 52.4507 298.905 51.3897 297.563 49.8531L301.916 45.7373C302.75 46.6885 303.639 47.4751 304.582 48.097C305.561 48.6824 306.74 48.9751 308.118 48.9751C308.59 48.9751 309.08 48.9202 309.587 48.8104C310.095 48.7007 310.567 48.5178 311.002 48.2617C311.437 48.0056 311.782 47.6946 312.036 47.3287C312.326 46.9263 312.471 46.469 312.471 45.9568C312.471 45.0422 312.126 44.3653 311.437 43.9263C310.748 43.4873 309.878 43.1397 308.826 42.8836C307.774 42.5909 306.631 42.3348 305.398 42.1153C304.201 41.8592 303.077 41.4751 302.025 40.9629C300.973 40.4141 300.102 39.6641 299.413 38.7129C298.724 37.7617 298.379 36.4446 298.379 34.7617C298.379 33.2983 298.67 32.0361 299.25 30.9751C299.867 29.8775 300.665 28.9812 301.644 28.2861C302.623 27.5909 303.748 27.0787 305.017 26.7495C306.287 26.4202 307.574 26.2556 308.88 26.2556C310.621 26.2556 312.344 26.5665 314.049 27.1885C315.754 27.7739 317.132 28.7983 318.184 30.2617L313.831 34.2129Z" fill="url(#paint0_linear)"/>
<defs>
<linearGradient id="paint0_linear" x1="159.5" y1="-2.61785" x2="159.5" y2="81.1534" gradientUnits="userSpaceOnUse">
<stop stop-color="#2F80ED"/>
<stop offset="0.408645" stop-color="#5E00BC"/>
<stop offset="1" stop-color="#E60563"/>
</linearGradient>
</defs>
</svg>
