<svg width="153" height="37" viewBox="0 0 153 37" fill="none" xmlns="http://www.w3.org/2000/svg">
<path fill-rule="evenodd" clip-rule="evenodd" d="M18.9524 3.07775C19.5476 2.50156 19.563 1.55194 18.9869 0.95671C18.4107 0.361477 17.461 0.346036 16.8658 0.922222L12.6322 5.02037C5.81736 5.90544 0.5 11.5655 0.5 18.5C0.5 25.2635 5.55844 30.8147 12.131 31.9055L10.0476 33.9222C9.4524 34.4984 9.43696 35.448 10.0131 36.0433C10.5893 36.6385 11.539 36.6539 12.1342 36.0777L16.3678 31.9796C23.1826 31.0945 28.5 25.4345 28.5 18.5C28.5 11.7364 23.4416 6.18525 16.869 5.09447L18.9524 3.07775ZM3.5 18.5C3.5 14.1577 6.22628 10.384 10.1601 8.75533C10.1977 9.43203 10.4817 10.0979 11.0119 10.6111L15.7524 15.2L11.0119 19.7888C9.87037 20.8938 9.87037 22.7062 11.0119 23.8111L15.7524 28.4L15.0423 29.0874C14.8627 29.0958 14.6819 29.1 14.5 29.1C8.37851 29.1 3.5 24.3086 3.5 18.5ZM25.5 18.5C25.5 22.8422 22.7737 26.616 18.8399 28.2446C18.8023 27.5679 18.5183 26.9021 17.9881 26.3888L13.2476 21.8L17.9881 17.2111C19.1296 16.1062 19.1296 14.2938 17.9881 13.1888L13.2476 8.59999L13.9577 7.91258C14.1373 7.90422 14.3181 7.89999 14.5 7.89999C20.6215 7.89999 25.5 12.6914 25.5 18.5ZM83.687 4.99999H86.7882V24.9756H83.687V4.99999ZM48.097 16.0975C47.7352 15.71 47.3561 15.4017 46.9599 15.1727C46.5636 14.9438 46.1587 14.8293 45.7452 14.8293C45.1766 14.8293 44.6684 14.9349 44.2204 15.1463C43.7725 15.3577 43.3848 15.6396 43.0575 15.9919C42.7473 16.3442 42.5061 16.7493 42.3338 17.2073C42.1788 17.6653 42.1012 18.1409 42.1012 18.6341C42.1012 19.1274 42.1788 19.603 42.3338 20.061C42.5061 20.519 42.7473 20.9241 43.0575 21.2764C43.3848 21.6287 43.7725 21.9106 44.2204 22.1219C44.6684 22.3333 45.1766 22.439 45.7452 22.439C46.2276 22.439 46.6756 22.3421 47.0891 22.1484C47.5026 21.937 47.8558 21.6375 48.1487 21.25L50.2162 23.5223C49.906 23.8394 49.5442 24.1125 49.1307 24.3414C48.7345 24.5704 48.3296 24.7554 47.9161 24.8963C47.5026 25.0372 47.1063 25.1341 46.7273 25.187C46.3482 25.2574 46.0209 25.2927 45.7452 25.2927C44.8148 25.2927 43.9361 25.1341 43.1091 24.8171C42.2822 24.5 41.5671 24.0508 40.9641 23.4695C40.3611 22.8882 39.8787 22.1924 39.5169 21.3821C39.1723 20.5542 39 19.6382 39 18.6341C39 17.6301 39.1723 16.7229 39.5169 15.9126C39.8787 15.0847 40.3611 14.3801 40.9641 13.7988C41.5671 13.2175 42.2822 12.7683 43.1091 12.4512C43.9361 12.1341 44.8148 11.9756 45.7452 11.9756C46.5377 11.9756 47.3303 12.1341 48.1228 12.4512C48.9326 12.7507 49.639 13.2351 50.242 13.9045L48.097 16.0975ZM51.4676 18.6341C51.4676 17.6301 51.6399 16.7229 51.9844 15.9126C52.3463 15.0847 52.8287 14.3801 53.4317 13.7988C54.0347 13.2175 54.7497 12.7683 55.5767 12.4512C56.4037 12.1341 57.2824 11.9756 58.2128 11.9756C59.1431 11.9756 60.0218 12.1341 60.8488 12.4512C61.6758 12.7683 62.3908 13.2175 62.9939 13.7988C63.5969 14.3801 64.0707 15.0847 64.4153 15.9126C64.7771 16.7229 64.958 17.6301 64.958 18.6341C64.958 19.6382 64.7771 20.5542 64.4153 21.3821C64.0707 22.1924 63.5969 22.8882 62.9939 23.4695C62.3908 24.0508 61.6758 24.5 60.8488 24.8171C60.0218 25.1341 59.1431 25.2927 58.2128 25.2927C57.2824 25.2927 56.4037 25.1341 55.5767 24.8171C54.7497 24.5 54.0347 24.0508 53.4317 23.4695C52.8287 22.8882 52.3463 22.1924 51.9844 21.3821C51.6399 20.5542 51.4676 19.6382 51.4676 18.6341ZM54.5688 18.6341C54.5688 19.1274 54.6463 19.603 54.8014 20.061C54.9737 20.519 55.2149 20.9241 55.525 21.2764C55.8524 21.6287 56.24 21.9106 56.688 22.1219C57.136 22.3333 57.6442 22.439 58.2128 22.439C58.7813 22.439 59.2896 22.3333 59.7376 22.1219C60.1855 21.9106 60.5645 21.6287 60.8747 21.2764C61.202 20.9241 61.4432 20.519 61.5983 20.061C61.7706 19.603 61.8567 19.1274 61.8567 18.6341C61.8567 18.1409 61.7706 17.6653 61.5983 17.2073C61.4432 16.7493 61.202 16.3442 60.8747 15.9919C60.5645 15.6396 60.1855 15.3577 59.7376 15.1463C59.2896 14.9349 58.7813 14.8293 58.2128 14.8293C57.6442 14.8293 57.136 14.9349 56.688 15.1463C56.24 15.3577 55.8524 15.6396 55.525 15.9919C55.2149 16.3442 54.9737 16.7493 54.8014 17.2073C54.6463 17.6653 54.5688 18.1409 54.5688 18.6341ZM67.7582 15.9126C67.4136 16.7229 67.2413 17.6301 67.2413 18.6341C67.2413 19.6382 67.4136 20.5542 67.7582 21.3821C68.12 22.1924 68.6024 22.8882 69.2054 23.4695C69.8084 24.0508 70.5235 24.5 71.3505 24.8171C72.1775 25.1341 73.0561 25.2927 73.9865 25.2927C74.9169 25.2927 75.7956 25.1341 76.6226 24.8171C77.4496 24.5 78.1646 24.0508 78.7676 23.4695C79.3706 22.8882 79.8444 22.1924 80.189 21.3821C80.5508 20.5542 80.7317 19.6382 80.7317 18.6341C80.7317 17.6301 80.5508 16.7229 80.189 15.9126C79.8444 15.0847 79.3706 14.3801 78.7676 13.7988C78.1646 13.2175 77.4496 12.7683 76.6226 12.4512C75.7956 12.1341 74.9169 11.9756 73.9865 11.9756C73.0561 11.9756 72.1775 12.1341 71.3505 12.4512C70.5235 12.7683 69.8084 13.2175 69.2054 13.7988C68.6024 14.3801 68.12 15.0847 67.7582 15.9126ZM70.5751 20.061C70.4201 19.603 70.3426 19.1274 70.3426 18.6341C70.3426 18.1409 70.4201 17.6653 70.5751 17.2073C70.7474 16.7493 70.9886 16.3442 71.2988 15.9919C71.6261 15.6396 72.0138 15.3577 72.4617 15.1463C72.9097 14.9349 73.418 14.8293 73.9865 14.8293C74.5551 14.8293 75.0633 14.9349 75.5113 15.1463C75.9593 15.3577 76.3383 15.6396 76.6484 15.9919C76.9758 16.3442 77.217 16.7493 77.372 17.2073C77.5443 17.6653 77.6305 18.1409 77.6305 18.6341C77.6305 19.1274 77.5443 19.603 77.372 20.061C77.217 20.519 76.9758 20.9241 76.6484 21.2764C76.3383 21.6287 75.9593 21.9106 75.5113 22.1219C75.0633 22.3333 74.5551 22.439 73.9865 22.439C73.418 22.439 72.9097 22.3333 72.4617 22.1219C72.0138 21.9106 71.6261 21.6287 71.2988 21.2764C70.9886 20.9241 70.7474 20.519 70.5751 20.061ZM94.5353 14.5122C95.5518 14.5122 96.3616 14.9438 96.9646 15.8069L99.0321 13.9045C98.5324 13.1998 97.8777 12.7066 97.068 12.4248C96.2582 12.1253 95.4398 11.9756 94.6128 11.9756C93.9926 11.9756 93.3809 12.0549 92.7779 12.2134C92.1749 12.3719 91.6408 12.6185 91.1756 12.9532C90.7104 13.2879 90.3314 13.7195 90.0385 14.248C89.7628 14.7588 89.625 15.3665 89.625 16.0711C89.625 16.8814 89.7887 17.5156 90.116 17.9736C90.4434 18.4316 90.8569 18.7927 91.3565 19.0569C91.8562 19.3035 92.3903 19.4885 92.9588 19.6118C93.5446 19.7175 94.0873 19.8408 94.587 19.9817C95.0866 20.105 95.5001 20.2723 95.8275 20.4837C96.1548 20.6951 96.3185 21.021 96.3185 21.4614C96.3185 21.708 96.2496 21.9282 96.1118 22.1219C95.9911 22.2981 95.8275 22.4478 95.6207 22.5711C95.414 22.6944 95.19 22.7825 94.9488 22.8354C94.7076 22.8882 94.475 22.9146 94.251 22.9146C93.5963 22.9146 93.0364 22.7737 92.5712 22.4919C92.1232 22.1924 91.7011 21.8137 91.3048 21.3557L89.2373 23.3374C89.8748 24.0772 90.5984 24.5881 91.4082 24.8699C92.218 25.1517 93.1053 25.2927 94.0701 25.2927C94.7076 25.2927 95.3451 25.2222 95.9825 25.0813C96.62 24.9404 97.1886 24.7114 97.6882 24.3943C98.2051 24.0772 98.6186 23.6633 98.9287 23.1524C99.2561 22.624 99.4197 21.981 99.4197 21.2236C99.4197 20.3956 99.2561 19.7439 98.9287 19.2683C98.6014 18.7927 98.1879 18.4227 97.6882 18.1585C97.1886 17.8767 96.6459 17.6741 96.0601 17.5508C95.4915 17.4099 94.9574 17.2778 94.4578 17.1545C93.9581 17.0312 93.5446 16.8814 93.2173 16.7053C92.8899 16.5291 92.7262 16.2473 92.7262 15.8597C92.7262 15.3841 92.9244 15.0406 93.3206 14.8293C93.7169 14.6179 94.1218 14.5122 94.5353 14.5122ZM101.832 12.2927H104.778V14.1951H104.83C105.278 13.42 105.881 12.8564 106.639 12.5041C107.397 12.1517 108.215 11.9756 109.094 11.9756C110.042 11.9756 110.894 12.1517 111.653 12.5041C112.411 12.8387 113.057 13.3055 113.591 13.9045C114.125 14.5034 114.53 15.208 114.805 16.0183C115.081 16.8286 115.219 17.7005 115.219 18.6341C115.219 19.5677 115.072 20.4397 114.78 21.25C114.487 22.0603 114.073 22.7649 113.539 23.3638C113.022 23.9627 112.393 24.4383 111.653 24.7906C110.912 25.1253 110.102 25.2927 109.223 25.2927C108.637 25.2927 108.121 25.231 107.673 25.1077C107.225 24.9844 106.828 24.8259 106.484 24.6321C106.139 24.4383 105.846 24.2358 105.605 24.0244C105.364 23.7954 105.166 23.5752 105.011 23.3638H104.933V31H101.832V12.2927ZM112.118 18.6341C112.118 18.1409 112.032 17.6653 111.859 17.2073C111.704 16.7493 111.463 16.3442 111.136 15.9919C110.826 15.6396 110.446 15.3577 109.999 15.1463C109.551 14.9349 109.042 14.8293 108.474 14.8293C107.905 14.8293 107.397 14.9349 106.949 15.1463C106.501 15.3577 106.113 15.6396 105.786 15.9919C105.476 16.3442 105.235 16.7493 105.062 17.2073C104.907 17.6653 104.83 18.1409 104.83 18.6341C104.83 19.1274 104.907 19.603 105.062 20.061C105.235 20.519 105.476 20.9241 105.786 21.2764C106.113 21.6287 106.501 21.9106 106.949 22.1219C107.397 22.3333 107.905 22.439 108.474 22.439C109.042 22.439 109.551 22.3333 109.999 22.1219C110.446 21.9106 110.826 21.6287 111.136 21.2764C111.463 20.9241 111.704 20.519 111.859 20.061C112.032 19.603 112.118 19.1274 112.118 18.6341ZM118.007 15.9126C117.662 16.7229 117.49 17.6301 117.49 18.6341C117.49 19.6382 117.662 20.5542 118.007 21.3821C118.369 22.1924 118.851 22.8882 119.454 23.4695C120.057 24.0508 120.772 24.5 121.599 24.8171C122.426 25.1341 123.305 25.2927 124.235 25.2927C125.166 25.2927 126.044 25.1341 126.871 24.8171C127.698 24.5 128.413 24.0508 129.016 23.4695C129.619 22.8882 130.093 22.1924 130.438 21.3821C130.8 20.5542 130.981 19.6382 130.981 18.6341C130.981 17.6301 130.8 16.7229 130.438 15.9126C130.093 15.0847 129.619 14.3801 129.016 13.7988C128.413 13.2175 127.698 12.7683 126.871 12.4512C126.044 12.1341 125.166 11.9756 124.235 11.9756C123.305 11.9756 122.426 12.1341 121.599 12.4512C120.772 12.7683 120.057 13.2175 119.454 13.7988C118.851 14.3801 118.369 15.0847 118.007 15.9126ZM120.824 20.061C120.669 19.603 120.591 19.1274 120.591 18.6341C120.591 18.1409 120.669 17.6653 120.824 17.2073C120.996 16.7493 121.237 16.3442 121.548 15.9919C121.875 15.6396 122.263 15.3577 122.711 15.1463C123.159 14.9349 123.667 14.8293 124.235 14.8293C124.804 14.8293 125.312 14.9349 125.76 15.1463C126.208 15.3577 126.587 15.6396 126.897 15.9919C127.225 16.3442 127.466 16.7493 127.621 17.2073C127.793 17.6653 127.879 18.1409 127.879 18.6341C127.879 19.1274 127.793 19.603 127.621 20.061C127.466 20.519 127.225 20.9241 126.897 21.2764C126.587 21.6287 126.208 21.9106 125.76 22.1219C125.312 22.3333 124.804 22.439 124.235 22.439C123.667 22.439 123.159 22.3333 122.711 22.1219C122.263 21.9106 121.875 21.6287 121.548 21.2764C121.237 20.9241 120.996 20.519 120.824 20.061ZM132.437 14.9878V12.2927H134.995V8.6199H138.097V12.2927H141.508V14.9878H138.097V20.5366C138.097 21.1707 138.209 21.6727 138.433 22.0427C138.674 22.4126 139.139 22.5975 139.828 22.5975C140.104 22.5975 140.405 22.5711 140.733 22.5183C141.06 22.4478 141.319 22.3421 141.508 22.2012V24.8699C141.181 25.0284 140.776 25.1341 140.293 25.187C139.828 25.2574 139.415 25.2927 139.053 25.2927C138.226 25.2927 137.545 25.1958 137.011 25.002C136.494 24.8259 136.081 24.5528 135.771 24.1829C135.478 23.7954 135.271 23.3198 135.15 22.7561C135.047 22.1924 134.995 21.5406 134.995 20.8008V14.9878H132.437ZM148.116 14.5122C149.132 14.5122 149.942 14.9438 150.545 15.8069L152.612 13.9045C152.113 13.1998 151.458 12.7066 150.648 12.4248C149.838 12.1253 149.02 11.9756 148.193 11.9756C147.573 11.9756 146.961 12.0549 146.358 12.2134C145.755 12.3719 145.221 12.6185 144.756 12.9532C144.291 13.2879 143.912 13.7195 143.619 14.248C143.343 14.7588 143.205 15.3665 143.205 16.0711C143.205 16.8814 143.369 17.5156 143.696 17.9736C144.024 18.4316 144.437 18.7927 144.937 19.0569C145.436 19.3035 145.971 19.4885 146.539 19.6118C147.125 19.7175 147.668 19.8408 148.167 19.9817C148.667 20.105 149.08 20.2723 149.408 20.4837C149.735 20.6951 149.899 21.021 149.899 21.4614C149.899 21.708 149.83 21.9282 149.692 22.1219C149.571 22.2981 149.408 22.4478 149.201 22.5711C148.994 22.6944 148.77 22.7825 148.529 22.8354C148.288 22.8882 148.055 22.9146 147.831 22.9146C147.177 22.9146 146.617 22.7737 146.151 22.4919C145.703 22.1924 145.281 21.8137 144.885 21.3557L142.818 23.3374C143.455 24.0772 144.179 24.5881 144.988 24.8699C145.798 25.1517 146.686 25.2927 147.65 25.2927C148.288 25.2927 148.925 25.2222 149.563 25.0813C150.2 24.9404 150.769 24.7114 151.268 24.3943C151.785 24.0772 152.199 23.6633 152.509 23.1524C152.836 22.624 153 21.981 153 21.2236C153 20.3956 152.836 19.7439 152.509 19.2683C152.182 18.7927 151.768 18.4227 151.268 18.1585C150.769 17.8767 150.226 17.6741 149.64 17.5508C149.072 17.4099 148.538 17.2778 148.038 17.1545C147.538 17.0312 147.125 16.8814 146.798 16.7053C146.47 16.5291 146.306 16.2473 146.306 15.8597C146.306 15.3841 146.505 15.0406 146.901 14.8293C147.297 14.6179 147.702 14.5122 148.116 14.5122Z" fill="url(#paint0_linear)"/>
<defs>
<linearGradient id="paint0_linear" x1="76.75" y1="-0.699999" x2="76.75" y2="37.7" gradientUnits="userSpaceOnUse">
<stop stop-color="#2F80ED"/>
<stop offset="0.408645" stop-color="#5E00BC"/>
<stop offset="1" stop-color="#E60563"/>
</linearGradient>
</defs>
</svg>
