<svg width="114" height="26" viewBox="0 0 114 26" fill="none" xmlns="http://www.w3.org/2000/svg">
<path d="M9.09698 11.0976C8.73517 10.71 8.35613 10.4018 7.95986 10.1728C7.56359 9.94377 7.15871 9.82927 6.74521 9.82927C6.17664 9.82927 5.66839 9.93496 5.22043 10.1463C4.77247 10.3577 4.38481 10.6396 4.05746 10.9919C3.74734 11.3442 3.50613 11.7493 3.33384 12.2073C3.17878 12.6653 3.10124 13.1409 3.10124 13.6341C3.10124 14.1274 3.17878 14.603 3.33384 15.061C3.50613 15.519 3.74734 15.9241 4.05746 16.2764C4.38481 16.6287 4.77247 16.9106 5.22043 17.1219C5.66839 17.3333 6.17664 17.439 6.74521 17.439C7.22762 17.439 7.67558 17.3421 8.08908 17.1484C8.50258 16.937 8.85578 16.6375 9.14867 16.25L11.2162 18.5224C10.906 18.8394 10.5442 19.1125 10.1307 19.3415C9.73446 19.5705 9.32958 19.7554 8.91608 19.8963C8.50258 20.0373 8.10631 20.1341 7.72727 20.187C7.34823 20.2574 7.02087 20.2927 6.74521 20.2927C5.81483 20.2927 4.93615 20.1341 4.10915 19.8171C3.28215 19.5 2.56714 19.0508 1.96412 18.4695C1.3611 17.8882 0.878686 17.1924 0.516874 16.3821C0.172291 15.5542 0 14.6382 0 13.6341C0 12.6301 0.172291 11.7229 0.516874 10.9126C0.878686 10.0847 1.3611 9.38008 1.96412 8.79878C2.56714 8.21748 3.28215 7.76829 4.10915 7.45122C4.93615 7.13415 5.81483 6.97561 6.74521 6.97561C7.53775 6.97561 8.33029 7.13415 9.12283 7.45122C9.9326 7.75068 10.639 8.23509 11.242 8.90447L9.09698 11.0976Z" fill="url(#paint0_linear)"/>
<path d="M12.4676 13.6341C12.4676 12.6301 12.6399 11.7229 12.9844 10.9126C13.3463 10.0847 13.8287 9.38008 14.4317 8.79878C15.0347 8.21748 15.7497 7.76829 16.5767 7.45122C17.4037 7.13415 18.2824 6.97561 19.2128 6.97561C20.1431 6.97561 21.0218 7.13415 21.8488 7.45122C22.6758 7.76829 23.3908 8.21748 23.9939 8.79878C24.5969 9.38008 25.0707 10.0847 25.4153 10.9126C25.7771 11.7229 25.958 12.6301 25.958 13.6341C25.958 14.6382 25.7771 15.5542 25.4153 16.3821C25.0707 17.1924 24.5969 17.8882 23.9939 18.4695C23.3908 19.0508 22.6758 19.5 21.8488 19.8171C21.0218 20.1341 20.1431 20.2927 19.2128 20.2927C18.2824 20.2927 17.4037 20.1341 16.5767 19.8171C15.7497 19.5 15.0347 19.0508 14.4317 18.4695C13.8287 17.8882 13.3463 17.1924 12.9844 16.3821C12.6399 15.5542 12.4676 14.6382 12.4676 13.6341ZM15.5688 13.6341C15.5688 14.1274 15.6463 14.603 15.8014 15.061C15.9737 15.519 16.2149 15.9241 16.525 16.2764C16.8524 16.6287 17.24 16.9106 17.688 17.1219C18.136 17.3333 18.6442 17.439 19.2128 17.439C19.7813 17.439 20.2896 17.3333 20.7376 17.1219C21.1855 16.9106 21.5646 16.6287 21.8747 16.2764C22.202 15.9241 22.4432 15.519 22.5983 15.061C22.7706 14.603 22.8567 14.1274 22.8567 13.6341C22.8567 13.1409 22.7706 12.6653 22.5983 12.2073C22.4432 11.7493 22.202 11.3442 21.8747 10.9919C21.5646 10.6396 21.1855 10.3577 20.7376 10.1463C20.2896 9.93496 19.7813 9.82927 19.2128 9.82927C18.6442 9.82927 18.136 9.93496 17.688 10.1463C17.24 10.3577 16.8524 10.6396 16.525 10.9919C16.2149 11.3442 15.9737 11.7493 15.8014 12.2073C15.6463 12.6653 15.5688 13.1409 15.5688 13.6341Z" fill="url(#paint1_linear)"/>
<path d="M28.2413 13.6341C28.2413 12.6301 28.4136 11.7229 28.7582 10.9126C29.12 10.0847 29.6024 9.38008 30.2054 8.79878C30.8085 8.21748 31.5235 7.76829 32.3505 7.45122C33.1775 7.13415 34.0561 6.97561 34.9865 6.97561C35.9169 6.97561 36.7956 7.13415 37.6226 7.45122C38.4496 7.76829 39.1646 8.21748 39.7676 8.79878C40.3706 9.38008 40.8444 10.0847 41.189 10.9126C41.5508 11.7229 41.7317 12.6301 41.7317 13.6341C41.7317 14.6382 41.5508 15.5542 41.189 16.3821C40.8444 17.1924 40.3706 17.8882 39.7676 18.4695C39.1646 19.0508 38.4496 19.5 37.6226 19.8171C36.7956 20.1341 35.9169 20.2927 34.9865 20.2927C34.0561 20.2927 33.1775 20.1341 32.3505 19.8171C31.5235 19.5 30.8085 19.0508 30.2054 18.4695C29.6024 17.8882 29.12 17.1924 28.7582 16.3821C28.4136 15.5542 28.2413 14.6382 28.2413 13.6341ZM31.3426 13.6341C31.3426 14.1274 31.4201 14.603 31.5751 15.061C31.7474 15.519 31.9886 15.9241 32.2988 16.2764C32.6261 16.6287 33.0138 16.9106 33.4617 17.1219C33.9097 17.3333 34.418 17.439 34.9865 17.439C35.5551 17.439 36.0633 17.3333 36.5113 17.1219C36.9593 16.9106 37.3383 16.6287 37.6484 16.2764C37.9758 15.9241 38.217 15.519 38.372 15.061C38.5443 14.603 38.6305 14.1274 38.6305 13.6341C38.6305 13.1409 38.5443 12.6653 38.372 12.2073C38.217 11.7493 37.9758 11.3442 37.6484 10.9919C37.3383 10.6396 36.9593 10.3577 36.5113 10.1463C36.0633 9.93496 35.5551 9.82927 34.9865 9.82927C34.418 9.82927 33.9097 9.93496 33.4617 10.1463C33.0138 10.3577 32.6261 10.6396 32.2988 10.9919C31.9886 11.3442 31.7474 11.7493 31.5751 12.2073C31.4201 12.6653 31.3426 13.1409 31.3426 13.6341Z" fill="url(#paint2_linear)"/>
<path d="M44.687 0H47.7882V19.9756H44.687V0Z" fill="url(#paint3_linear)"/>
<path d="M57.9646 10.8069C57.3616 9.94377 56.5518 9.51219 55.5353 9.51219C55.1218 9.51219 54.7169 9.61789 54.3206 9.82927C53.9244 10.0407 53.7262 10.3841 53.7262 10.8598C53.7262 11.2473 53.8899 11.5291 54.2173 11.7053C54.5446 11.8814 54.9581 12.0312 55.4578 12.1545C55.9574 12.2778 56.4915 12.4099 57.0601 12.5508C57.6459 12.6741 58.1886 12.8767 58.6882 13.1585C59.1879 13.4228 59.6014 13.7927 59.9287 14.2683C60.2561 14.7439 60.4197 15.3957 60.4197 16.2236C60.4197 16.981 60.2561 17.624 59.9287 18.1524C59.6186 18.6633 59.2051 19.0772 58.6882 19.3943C58.1886 19.7114 57.62 19.9404 56.9825 20.0813C56.3451 20.2222 55.7076 20.2927 55.0701 20.2927C54.1053 20.2927 53.218 20.1518 52.4082 19.8699C51.5984 19.5881 50.8748 19.0772 50.2373 18.3374L52.3048 16.3557C52.7011 16.8137 53.1232 17.1924 53.5712 17.4919C54.0364 17.7737 54.5963 17.9146 55.251 17.9146C55.475 17.9146 55.7076 17.8882 55.9488 17.8354C56.19 17.7825 56.414 17.6944 56.6207 17.5711C56.8275 17.4478 56.9911 17.2981 57.1118 17.1219C57.2496 16.9282 57.3185 16.708 57.3185 16.4614C57.3185 16.021 57.1548 15.6951 56.8275 15.4837C56.5001 15.2724 56.0866 15.105 55.587 14.9817C55.0873 14.8408 54.5446 14.7175 53.9588 14.6118C53.3903 14.4885 52.8562 14.3035 52.3565 14.0569C51.8569 13.7927 51.4434 13.4316 51.116 12.9736C50.7887 12.5156 50.625 11.8814 50.625 11.0711C50.625 10.3665 50.7628 9.75881 51.0385 9.24797C51.3314 8.71951 51.7104 8.28794 52.1756 7.95325C52.6408 7.61856 53.1749 7.37195 53.7779 7.21341C54.3809 7.05488 54.9926 6.97561 55.6128 6.97561C56.4398 6.97561 57.2582 7.12534 58.068 7.4248C58.8777 7.70664 59.5324 8.19986 60.0321 8.90447L57.9646 10.8069Z" fill="url(#paint4_linear)"/>
<path d="M62.8319 7.29268H65.7781V9.19512H65.8298C66.2777 8.42005 66.8807 7.85637 67.6388 7.50406C68.3969 7.15176 69.2153 6.97561 70.094 6.97561C71.0416 6.97561 71.8944 7.15176 72.6525 7.50406C73.4106 7.83875 74.0567 8.30555 74.5908 8.90447C75.1249 9.50339 75.5298 10.208 75.8054 11.0183C76.0811 11.8286 76.2189 12.7005 76.2189 13.6341C76.2189 14.5678 76.0725 15.4397 75.7796 16.25C75.4867 17.0603 75.0732 17.7649 74.5391 18.3638C74.0222 18.9627 73.3934 19.4383 72.6525 19.7906C71.9116 20.1253 71.1019 20.2927 70.2232 20.2927C69.6374 20.2927 69.1205 20.231 68.6726 20.1077C68.2246 19.9844 67.8283 19.8259 67.4838 19.6321C67.1392 19.4383 66.8463 19.2358 66.6051 19.0244C66.3639 18.7954 66.1657 18.5752 66.0107 18.3638H65.9331V26H62.8319V7.29268ZM73.1177 13.6341C73.1177 13.1409 73.0315 12.6653 72.8593 12.2073C72.7042 11.7493 72.463 11.3442 72.1356 10.9919C71.8255 10.6396 71.4465 10.3577 70.9985 10.1463C70.5505 9.93496 70.0423 9.82927 69.4737 9.82927C68.9052 9.82927 68.3969 9.93496 67.9489 10.1463C67.501 10.3577 67.1133 10.6396 66.786 10.9919C66.4759 11.3442 66.2346 11.7493 66.0624 12.2073C65.9073 12.6653 65.8298 13.1409 65.8298 13.6341C65.8298 14.1274 65.9073 14.603 66.0624 15.061C66.2346 15.519 66.4759 15.9241 66.786 16.2764C67.1133 16.6287 67.501 16.9106 67.9489 17.1219C68.3969 17.3333 68.9052 17.439 69.4737 17.439C70.0423 17.439 70.5505 17.3333 70.9985 17.1219C71.4465 16.9106 71.8255 16.6287 72.1356 16.2764C72.463 15.9241 72.7042 15.519 72.8593 15.061C73.0315 14.603 73.1177 14.1274 73.1177 13.6341Z" fill="url(#paint5_linear)"/>
<path d="M78.4901 13.6341C78.4901 12.6301 78.6624 11.7229 79.007 10.9126C79.3688 10.0847 79.8513 9.38008 80.4543 8.79878C81.0573 8.21748 81.7723 7.76829 82.5993 7.45122C83.4263 7.13415 84.305 6.97561 85.2354 6.97561C86.1657 6.97561 87.0444 7.13415 87.8714 7.45122C88.6984 7.76829 89.4134 8.21748 90.0164 8.79878C90.6195 9.38008 91.0933 10.0847 91.4378 10.9126C91.7997 11.7229 91.9806 12.6301 91.9806 13.6341C91.9806 14.6382 91.7997 15.5542 91.4378 16.3821C91.0933 17.1924 90.6195 17.8882 90.0164 18.4695C89.4134 19.0508 88.6984 19.5 87.8714 19.8171C87.0444 20.1341 86.1657 20.2927 85.2354 20.2927C84.305 20.2927 83.4263 20.1341 82.5993 19.8171C81.7723 19.5 81.0573 19.0508 80.4543 18.4695C79.8513 17.8882 79.3688 17.1924 79.007 16.3821C78.6624 15.5542 78.4901 14.6382 78.4901 13.6341ZM81.5914 13.6341C81.5914 14.1274 81.6689 14.603 81.824 15.061C81.9963 15.519 82.2375 15.9241 82.5476 16.2764C82.875 16.6287 83.2626 16.9106 83.7106 17.1219C84.1585 17.3333 84.6668 17.439 85.2354 17.439C85.8039 17.439 86.3122 17.3333 86.7601 17.1219C87.2081 16.9106 87.5871 16.6287 87.8973 16.2764C88.2246 15.9241 88.4658 15.519 88.6209 15.061C88.7932 14.603 88.8793 14.1274 88.8793 13.6341C88.8793 13.1409 88.7932 12.6653 88.6209 12.2073C88.4658 11.7493 88.2246 11.3442 87.8973 10.9919C87.5871 10.6396 87.2081 10.3577 86.7601 10.1463C86.3122 9.93496 85.8039 9.82927 85.2354 9.82927C84.6668 9.82927 84.1585 9.93496 83.7106 10.1463C83.2626 10.3577 82.875 10.6396 82.5476 10.9919C82.2375 11.3442 81.9963 11.7493 81.824 12.2073C81.6689 12.6653 81.5914 13.1409 81.5914 13.6341Z" fill="url(#paint6_linear)"/>
<path d="M93.4369 9.9878V7.29268H95.9954V3.61992H99.0967V7.29268H102.508V9.9878H99.0967V15.5366C99.0967 16.1707 99.2087 16.6728 99.4326 17.0427C99.6738 17.4126 100.139 17.5976 100.828 17.5976C101.104 17.5976 101.405 17.5711 101.733 17.5183C102.06 17.4478 102.319 17.3421 102.508 17.2012V19.8699C102.181 20.0285 101.776 20.1341 101.293 20.187C100.828 20.2574 100.415 20.2927 100.053 20.2927C99.2259 20.2927 98.5453 20.1958 98.0112 20.002C97.4944 19.8259 97.0809 19.5528 96.7707 19.1829C96.4778 18.7954 96.2711 18.3198 96.1505 17.7561C96.0471 17.1924 95.9954 16.5406 95.9954 15.8008V9.9878H93.4369Z" fill="url(#paint7_linear)"/>
<path d="M111.545 10.8069C110.942 9.94377 110.132 9.51219 109.116 9.51219C108.702 9.51219 108.297 9.61789 107.901 9.82927C107.505 10.0407 107.306 10.3841 107.306 10.8598C107.306 11.2473 107.47 11.5291 107.798 11.7053C108.125 11.8814 108.538 12.0312 109.038 12.1545C109.538 12.2778 110.072 12.4099 110.64 12.5508C111.226 12.6741 111.769 12.8767 112.268 13.1585C112.768 13.4228 113.182 13.7927 113.509 14.2683C113.836 14.7439 114 15.3957 114 16.2236C114 16.981 113.836 17.624 113.509 18.1524C113.199 18.6633 112.785 19.0772 112.268 19.3943C111.769 19.7114 111.2 19.9404 110.563 20.0813C109.925 20.2222 109.288 20.2927 108.65 20.2927C107.686 20.2927 106.798 20.1518 105.988 19.8699C105.179 19.5881 104.455 19.0772 103.818 18.3374L105.885 16.3557C106.281 16.8137 106.703 17.1924 107.151 17.4919C107.617 17.7737 108.177 17.9146 108.831 17.9146C109.055 17.9146 109.288 17.8882 109.529 17.8354C109.77 17.7825 109.994 17.6944 110.201 17.5711C110.408 17.4478 110.571 17.2981 110.692 17.1219C110.83 16.9282 110.899 16.708 110.899 16.4614C110.899 16.021 110.735 15.6951 110.408 15.4837C110.08 15.2724 109.667 15.105 109.167 14.9817C108.668 14.8408 108.125 14.7175 107.539 14.6118C106.971 14.4885 106.436 14.3035 105.937 14.0569C105.437 13.7927 105.024 13.4316 104.696 12.9736C104.369 12.5156 104.205 11.8814 104.205 11.0711C104.205 10.3665 104.343 9.75881 104.619 9.24797C104.912 8.71951 105.291 8.28794 105.756 7.95325C106.221 7.61856 106.755 7.37195 107.358 7.21341C107.961 7.05488 108.573 6.97561 109.193 6.97561C110.02 6.97561 110.838 7.12534 111.648 7.4248C112.458 7.70664 113.113 8.19986 113.612 8.90447L111.545 10.8069Z" fill="url(#paint8_linear)"/>
<defs>
<linearGradient id="paint0_linear" x1="57" y1="-0.866667" x2="57" y2="26.8667" gradientUnits="userSpaceOnUse">
<stop stop-color="#2F80ED"/>
<stop offset="0.408645" stop-color="#5E00BC"/>
<stop offset="1" stop-color="#E60563"/>
</linearGradient>
<linearGradient id="paint1_linear" x1="57" y1="-0.866667" x2="57" y2="26.8667" gradientUnits="userSpaceOnUse">
<stop stop-color="#2F80ED"/>
<stop offset="0.408645" stop-color="#5E00BC"/>
<stop offset="1" stop-color="#E60563"/>
</linearGradient>
<linearGradient id="paint2_linear" x1="57" y1="-0.866667" x2="57" y2="26.8667" gradientUnits="userSpaceOnUse">
<stop stop-color="#2F80ED"/>
<stop offset="0.408645" stop-color="#5E00BC"/>
<stop offset="1" stop-color="#E60563"/>
</linearGradient>
<linearGradient id="paint3_linear" x1="57" y1="-0.866667" x2="57" y2="26.8667" gradientUnits="userSpaceOnUse">
<stop stop-color="#2F80ED"/>
<stop offset="0.408645" stop-color="#5E00BC"/>
<stop offset="1" stop-color="#E60563"/>
</linearGradient>
<linearGradient id="paint4_linear" x1="57" y1="-0.866667" x2="57" y2="26.8667" gradientUnits="userSpaceOnUse">
<stop stop-color="#2F80ED"/>
<stop offset="0.408645" stop-color="#5E00BC"/>
<stop offset="1" stop-color="#E60563"/>
</linearGradient>
<linearGradient id="paint5_linear" x1="57" y1="-0.866667" x2="57" y2="26.8667" gradientUnits="userSpaceOnUse">
<stop stop-color="#2F80ED"/>
<stop offset="0.408645" stop-color="#5E00BC"/>
<stop offset="1" stop-color="#E60563"/>
</linearGradient>
<linearGradient id="paint6_linear" x1="57" y1="-0.866667" x2="57" y2="26.8667" gradientUnits="userSpaceOnUse">
<stop stop-color="#2F80ED"/>
<stop offset="0.408645" stop-color="#5E00BC"/>
<stop offset="1" stop-color="#E60563"/>
</linearGradient>
<linearGradient id="paint7_linear" x1="57" y1="-0.866667" x2="57" y2="26.8667" gradientUnits="userSpaceOnUse">
<stop stop-color="#2F80ED"/>
<stop offset="0.408645" stop-color="#5E00BC"/>
<stop offset="1" stop-color="#E60563"/>
</linearGradient>
<linearGradient id="paint8_linear" x1="57" y1="-0.866667" x2="57" y2="26.8667" gradientUnits="userSpaceOnUse">
<stop stop-color="#2F80ED"/>
<stop offset="0.408645" stop-color="#5E00BC"/>
<stop offset="1" stop-color="#E60563"/>
</linearGradient>
</defs>
</svg>
